{
  "accessors": [
    {
      "bufferView": 0,
      "componentType": 5125,
      "count": 42480,
      "type": "SCALAR"
    },
    {
      "bufferView": 1,
      "componentType": 5126,
      "count": 7814,
      "max": [
        9.80853080749512,
        13.505859375,
        7.8076286315918
      ],
      "min": [
        -5.94666004180908,
        -0.123016357421875,
        -7.8076286315918
      ],
      "type": "VEC3"
    },
    {
      "bufferView": 2,
      "componentType": 5126,
      "count": 7814,
      "type": "VEC3"
    },
    {
      "bufferView": 3,
      "componentType": 5126,
      "count": 7814,
      "type": "VEC4"
    },
    {
      "bufferView": 4,
      "componentType": 5126,
      "count": 7814,
      "type": "VEC2"
    },
    {
      "bufferView": 5,
      "componentType": 5125,
      "count": 6480,
      "type": "SCALAR"
    },
    {
      "bufferView": 6,
      "componentType": 5126,
      "count": 1184,
      "max": [
        9.84078121185303,
        3.19167709350586,
        7.87633228302002
      ],
      "min": [
        -6.0696873664856,
        1.97340440750122,
        -7.87630748748779
      ],
      "type": "VEC3"
    },
    {
      "bufferView": 7,
      "componentType": 5126,
      "count": 1184,
      "type": "VEC3"
    },
    {
      "bufferView": 8,
      "componentType": 5126,
      "count": 1184,
      "type": "VEC4"
    },
    {
      "bufferView": 9,
      "componentType": 5126,
      "count": 1184,
      "type": "VEC2"
    },
    {
      "bufferView": 10,
      "componentType": 5125,
      "count": 47184,
      "type": "SCALAR"
    },
    {
      "bufferView": 11,
      "componentType": 5126,
      "count": 8667,
      "max": [
        6.44340038299561,
        14.0554828643799,
        5.36025428771973
      ],
      "min": [
        -3.46174550056458,
        13.1764154434204,
        -5.36030769348145
      ],
      "type": "VEC3"
    },
    {
      "bufferView": 12,
      "componentType": 5126,
      "count": 8667,
      "type": "VEC3"
    },
    {
      "bufferView": 13,
      "componentType": 5126,
      "count": 8667,
      "type": "VEC4"
    },
    {
      "bufferView": 14,
      "componentType": 5126,
      "count": 8667,
      "type": "VEC2"
    },
    {
      "bufferView": 15,
      "componentType": 5125,
      "count": 9744,
      "type": "SCALAR"
    },
    {
      "bufferView": 16,
      "componentType": 5126,
      "count": 1934,
      "max": [
        0.122336149215698,
        14.1230163574219,
        1.1168041229248
      ],
      "min": [
        -8.59882736206055,
        12.7944803237915,
        -1.11685752868652
      ],
      "type": "VEC3"
    },
    {
      "bufferView": 17,
      "componentType": 5126,
      "count": 1934,
      "type": "VEC3"
    },
    {
      "bufferView": 18,
      "componentType": 5126,
      "count": 1934,
      "type": "VEC4"
    },
    {
      "bufferView": 19,
      "componentType": 5126,
      "count": 1934,
      "type": "VEC2"
    },
    {
      "bufferView": 20,
      "componentType": 5125,
      "count": 13872,
      "type": "SCALAR"
    },
    {
      "bufferView": 21,
      "componentType": 5126,
      "count": 2598,
      "max": [
        -2.86475467681885,
        13.6300506591797,
        0.853414535522461
      ],
      "min": [
        -8.04965209960938,
        12.0438537597656,
        -0.853420317173004
      ],
      "type": "VEC3"
    },
    {
      "bufferView": 22,
      "componentType": 5126,
      "count": 2598,
      "type": "VEC3"
    },
    {
      "bufferView": 23,
      "componentType": 5126,
      "count": 2598,
      "type": "VEC4"
    },
    {
      "bufferView": 24,
      "componentType": 5126,
      "count": 2598,
      "type": "VEC2"
    },
    {
      "bufferView": 25,
      "componentType": 5125,
      "count": 20064,
      "type": "SCALAR"
    },
    {
      "bufferView": 26,
      "componentType": 5126,
      "count": 3812,
      "max": [
        -3.199547290802,
        13.3246612548828,
        1.37309074401855
      ],
      "min": [
        -11.8085308074951,
        1.98368883132935,
        -1.37314236164093
      ],
      "type": "VEC3"
    },
    {
      "bufferView": 27,
      "componentType": 5126,
      "count": 3812,
      "type": "VEC3"
    },
    {
      "bufferView": 28,
      "componentType": 5126,
      "count": 3812,
      "type": "VEC4"
    },
    {
      "bufferView": 29,
      "componentType": 5126,
      "count": 3812,
      "type": "VEC2"
    }
  ],
  "asset": {
    "generator": "Adobe Substance 3D Painter 9.1.2",
    "version": "2.0"
  },
  "bufferViews": [
    {
      "buffer": 0,
      "byteLength": 169920,
      "target": 34963
    },
    {
      "buffer": 0,
      "byteLength": 93768,
      "byteOffset": 169920,
      "target": 34962
    },
    {
      "buffer": 0,
      "byteLength": 93768,
      "byteOffset": 263688,
      "target": 34962
    },
    {
      "buffer": 0,
      "byteLength": 125024,
      "byteOffset": 357456,
      "target": 34962
    },
    {
      "buffer": 0,
      "byteLength": 62512,
      "byteOffset": 482480,
      "target": 34962
    },
    {
      "buffer": 0,
      "byteLength": 25920,
      "byteOffset": 544992,
      "target": 34963
    },
    {
      "buffer": 0,
      "byteLength": 14208,
      "byteOffset": 570912,
      "target": 34962
    },
    {
      "buffer": 0,
      "byteLength": 14208,
      "byteOffset": 585120,
      "target": 34962
    },
    {
      "buffer": 0,
      "byteLength": 18944,
      "byteOffset": 599328,
      "target": 34962
    },
    {
      "buffer": 0,
      "byteLength": 9472,
      "byteOffset": 618272,
      "target": 34962
    },
    {
      "buffer": 0,
      "byteLength": 188736,
      "byteOffset": 627744,
      "target": 34963
    },
    {
      "buffer": 0,
      "byteLength": 104004,
      "byteOffset": 816480,
      "target": 34962
    },
    {
      "buffer": 0,
      "byteLength": 104004,
      "byteOffset": 920484,
      "target": 34962
    },
    {
      "buffer": 0,
      "byteLength": 138672,
      "byteOffset": 1024488,
      "target": 34962
    },
    {
      "buffer": 0,
      "byteLength": 69336,
      "byteOffset": 1163160,
      "target": 34962
    },
    {
      "buffer": 0,
      "byteLength": 38976,
      "byteOffset": 1232496,
      "target": 34963
    },
    {
      "buffer": 0,
      "byteLength": 23208,
      "byteOffset": 1271472,
      "target": 34962
    },
    {
      "buffer": 0,
      "byteLength": 23208,
      "byteOffset": 1294680,
      "target": 34962
    },
    {
      "buffer": 0,
      "byteLength": 30944,
      "byteOffset": 1317888,
      "target": 34962
    },
    {
      "buffer": 0,
      "byteLength": 15472,
      "byteOffset": 1348832,
      "target": 34962
    },
    {
      "buffer": 0,
      "byteLength": 55488,
      "byteOffset": 1364304,
      "target": 34963
    },
    {
      "buffer": 0,
      "byteLength": 31176,
      "byteOffset": 1419792,
      "target": 34962
    },
    {
      "buffer": 0,
      "byteLength": 31176,
      "byteOffset": 1450968,
      "target": 34962
    },
    {
      "buffer": 0,
      "byteLength": 41568,
      "byteOffset": 1482144,
      "target": 34962
    },
    {
      "buffer": 0,
      "byteLength": 20784,
      "byteOffset": 1523712,
      "target": 34962
    },
    {
      "buffer": 0,
      "byteLength": 80256,
      "byteOffset": 1544496,
      "target": 34963
    },
    {
      "buffer": 0,
      "byteLength": 45744,
      "byteOffset": 1624752,
      "target": 34962
    },
    {
      "buffer": 0,
      "byteLength": 45744,
      "byteOffset": 1670496,
      "target": 34962
    },
    {
      "buffer": 0,
      "byteLength": 60992,
      "byteOffset": 1716240,
      "target": 34962
    },
    {
      "buffer": 0,
      "byteLength": 30496,
      "byteOffset": 1777232,
      "target": 34962
    }
  ],
  "buffers": [
    {
      "byteLength": 1807728,
      "uri": "CoffeePot-HighRes-SubstanceWorkingFile_V003.bin"
    }
  ],
  "images": [
    {
      "uri": "chrome_baseColor_1001.png"
    },
    {
      "uri": "chrome_occlusionRoughnessMetallic_1001.png"
    },
    {
      "uri": "chrome_normal_1001.png"
    },
    {
      "uri": "chrome_emissive_1001.png"
    },
    {
      "uri": "glass_baseColor_1001.png"
    },
    {
      "uri": "glass_occlusionRoughnessMetallic_1001.png"
    },
    {
      "uri": "glass_normal_1001.png"
    },
    {
      "uri": "glass_emissive_1001.png"
    },
    {
      "uri": "plastic_baseColor_1001.png"
    },
    {
      "uri": "plastic_occlusionRoughnessMetallic_1001.png"
    },
    {
      "uri": "plastic_normal_1001.png"
    },
    {
      "uri": "plastic_emissive_1001.png"
    }
  ],
  "materials": [
    {
      "alphaMode": "OPAQUE",
      "emissiveFactor": [
        1.0,
        1.0,
        1.0
      ],
      "emissiveTexture": {
        "index": 3
      },
      "name": "chrome_1001",
      "normalTexture": {
        "index": 2
      },
      "occlusionTexture": {
        "index": 1
      },
      "pbrMetallicRoughness": {
        "baseColorTexture": {
          "index": 0
        },
        "metallicRoughnessTexture": {
          "index": 1
        }
      }
    },
    {
      "alphaMode": "BLEND",
      "emissiveFactor": [
        1.0,
        1.0,
        1.0
      ],
      "emissiveTexture": {
        "index": 7
      },
      "name": "glass_1001",
      "normalTexture": {
        "index": 6
      },
      "occlusionTexture": {
        "index": 5
      },
      "pbrMetallicRoughness": {
        "baseColorTexture": {
          "index": 4
        },
        "metallicRoughnessTexture": {
          "index": 5
        }
      }
    },
    {
      "alphaMode": "OPAQUE",
      "emissiveFactor": [
        1.0,
        1.0,
        1.0
      ],
      "emissiveTexture": {
        "index": 11
      },
      "name": "plastic_1001",
      "normalTexture": {
        "index": 10
      },
      "occlusionTexture": {
        "index": 9
      },
      "pbrMetallicRoughness": {
        "baseColorTexture": {
          "index": 8
        },
        "metallicRoughnessTexture": {
          "index": 9
        }
      }
    }
  ],
  "meshes": [
    {
      "name": "glass",
      "primitives": [
        {
          "attributes": {
            "NORMAL": 2,
            "POSITION": 1,
            "TANGENT": 3,
            "TEXCOORD_0": 4
          },
          "indices": 0,
          "material": 1,
          "mode": 4
        }
      ]
    },
    {
      "name": "chromeRim",
      "primitives": [
        {
          "attributes": {
            "NORMAL": 7,
            "POSITION": 6,
            "TANGENT": 8,
            "TEXCOORD_0": 9
          },
          "indices": 5,
          "material": 0,
          "mode": 4
        }
      ]
    },
    {
      "name": "lidTop",
      "primitives": [
        {
          "attributes": {
            "NORMAL": 12,
            "POSITION": 11,
            "TANGENT": 13,
            "TEXCOORD_0": 14
          },
          "indices": 10,
          "material": 2,
          "mode": 4
        }
      ]
    },
    {
      "name": "lidHandle",
      "primitives": [
        {
          "attributes": {
            "NORMAL": 17,
            "POSITION": 16,
            "TANGENT": 18,
            "TEXCOORD_0": 19
          },
          "indices": 15,
          "material": 2,
          "mode": 4
        }
      ]
    },
    {
      "name": "clip",
      "primitives": [
        {
          "attributes": {
            "NORMAL": 22,
            "POSITION": 21,
            "TANGENT": 23,
            "TEXCOORD_0": 24
          },
          "indices": 20,
          "material": 2,
          "mode": 4
        }
      ]
    },
    {
      "name": "handle",
      "primitives": [
        {
          "attributes": {
            "NORMAL": 27,
            "POSITION": 26,
            "TANGENT": 28,
            "TEXCOORD_0": 29
          },
          "indices": 25,
          "material": 2,
          "mode": 4
        }
      ]
    }
  ],
  "nodes": [
    {
      "children": [
        1
      ],
      "name": "RootNode",
      "scale": [
        0.00999999977648258,
        0.00999999977648258,
        0.00999999977648258
      ]
    },
    {
      "children": [
        2,
        4,
        6,
        8,
        10,
        12
      ],
      "name": "coffeePot_highPoly"
    },
    {
      "children": [
        3
      ],
      "name": "glass"
    },
    {
      "mesh": 0,
      "name": "glass"
    },
    {
      "children": [
        5
      ],
      "name": "chromeRim"
    },
    {
      "mesh": 1,
      "name": "chromeRim"
    },
    {
      "children": [
        7
      ],
      "name": "lidTop"
    },
    {
      "mesh": 2,
      "name": "lidTop"
    },
    {
      "children": [
        9
      ],
      "name": "lidHandle"
    },
    {
      "mesh": 3,
      "name": "lidHandle"
    },
    {
      "children": [
        11
      ],
      "name": "clip"
    },
    {
      "mesh": 4,
      "name": "clip"
    },
    {
      "children": [
        13
      ],
      "name": "handle"
    },
    {
      "mesh": 5,
      "name": "handle"
    }
  ],
  "samplers": [
    {
      "magFilter": 9729,
      "minFilter": 9985,
      "wrapS": 10497,
      "wrapT": 10497
    }
  ],
  "scene": 0,
  "scenes": [
    {
      "name": "Scene",
      "nodes": [
        0
      ]
    }
  ],
  "textures": [
    {
      "sampler": 0,
      "source": 0
    },
    {
      "sampler": 0,
      "source": 1
    },
    {
      "sampler": 0,
      "source": 2
    },
    {
      "sampler": 0,
      "source": 3
    },
    {
      "sampler": 0,
      "source": 4
    },
    {
      "sampler": 0,
      "source": 5
    },
    {
      "sampler": 0,
      "source": 6
    },
    {
      "sampler": 0,
      "source": 7
    },
    {
      "sampler": 0,
      "source": 8
    },
    {
      "sampler": 0,
      "source": 9
    },
    {
      "sampler": 0,
      "source": 10
    },
    {
      "sampler": 0,
      "source": 11
    }
  ]
}